<?xml version="1.0" encoding="UTF-8"?>
<!DOCTYPE svg
PUBLIC "-//W3C//DTD SVG 1.1//EN"
       "http://www.w3.org/Graphics/SVG/1.1/DTD/svg11.dtd">
<svg viewBox="102 101 853 633" width="751px" height="532px" xmlns="http://www.w3.org/2000/svg" version="1.1">
   <line x1="733" y1="420" x2="723" y2="420" style="stroke:#0bf;stroke-width:1;"/>
   <line x1="703" y1="146" x2="713" y2="146" style="stroke:#0bf;stroke-width:1;"/>
   <line x1="723" y1="420" x2="703" y2="146" style="stroke:#0bf;stroke-width:1;"/>
   <line x1="725.5" y1="420" x2="729.03553390593" y2="423.53553390593" style="stroke:#0bf;stroke-width:2;"/>
   <line x1="725.5" y1="420" x2="729.03553390593" y2="416.46446609407" style="stroke:#0bf;stroke-width:2;"/>
   <line x1="708" y1="146" x2="704.46446609407" y2="149.53553390593" style="stroke:#0bf;stroke-width:2;"/>
   <line x1="708" y1="146" x2="704.46446609407" y2="142.46446609407" style="stroke:#0bf;stroke-width:2;"/>
   <line x1="733" y1="520" x2="723" y2="520" style="stroke:#333;stroke-width:1;"/>
   <line x1="544" y1="418" x2="534" y2="418" style="stroke:#333;stroke-width:1;"/>
   <line x1="723" y1="520" x2="544" y2="418" style="stroke:#333;stroke-width:1;"/>
   <line x1="725.5" y1="520" x2="729.03553390593" y2="523.53553390593" style="stroke:#333;stroke-width:2;"/>
   <line x1="725.5" y1="520" x2="729.03553390593" y2="516.46446609407" style="stroke:#333;stroke-width:2;"/>
   <line x1="539" y1="418" x2="542.53553390593" y2="421.53553390593" style="stroke:#333;stroke-width:2;"/>
   <line x1="539" y1="418" x2="542.53553390593" y2="414.46446609407" style="stroke:#333;stroke-width:2;"/>
   <line x1="713" y1="326" x2="703" y2="326" style="stroke:#0b0;stroke-width:1;"/>
   <line x1="544" y1="418" x2="534" y2="418" style="stroke:#0b0;stroke-width:1;"/>
   <line x1="703" y1="326" x2="544" y2="418" style="stroke:#0b0;stroke-width:1;"/>
   <line x1="705.5" y1="326" x2="709.03553390593" y2="329.53553390593" style="stroke:#0b0;stroke-width:2;"/>
   <line x1="705.5" y1="326" x2="709.03553390593" y2="322.46446609407" style="stroke:#0b0;stroke-width:2;"/>
   <line x1="539" y1="418" x2="542.53553390593" y2="421.53553390593" style="stroke:#0b0;stroke-width:2;"/>
   <line x1="539" y1="418" x2="542.53553390593" y2="414.46446609407" style="stroke:#0b0;stroke-width:2;"/>
   <line x1="242" y1="367" x2="252" y2="367" style="stroke:#333;stroke-width:1;"/>
   <line x1="227" y1="548" x2="217" y2="548" style="stroke:#333;stroke-width:1;"/>
   <line x1="252" y1="367" x2="227" y2="548" style="stroke:#333;stroke-width:1;"/>
   <line x1="249.5" y1="367" x2="245.96446609407" y2="370.53553390593" style="stroke:#333;stroke-width:2;"/>
   <line x1="249.5" y1="367" x2="245.96446609407" y2="363.46446609407" style="stroke:#333;stroke-width:2;"/>
   <line x1="222" y1="548" x2="225.53553390593" y2="551.53553390593" style="stroke:#333;stroke-width:2;"/>
   <line x1="222" y1="548" x2="225.53553390593" y2="544.46446609407" style="stroke:#333;stroke-width:2;"/>
   <line x1="242" y1="387" x2="252" y2="387" style="stroke:#0b0;stroke-width:1;"/>
   <line x1="703" y1="146" x2="713" y2="146" style="stroke:#0b0;stroke-width:1;"/>
   <line x1="252" y1="387" x2="703" y2="146" style="stroke:#0b0;stroke-width:1;"/>
   <line x1="249.5" y1="387" x2="245.96446609407" y2="390.53553390593" style="stroke:#0b0;stroke-width:2;"/>
   <line x1="249.5" y1="387" x2="245.96446609407" y2="383.46446609407" style="stroke:#0b0;stroke-width:2;"/>
   <line x1="708" y1="146" x2="704.46446609407" y2="149.53553390593" style="stroke:#0b0;stroke-width:2;"/>
   <line x1="708" y1="146" x2="704.46446609407" y2="142.46446609407" style="stroke:#0b0;stroke-width:2;"/>
   <line x1="217" y1="588" x2="227" y2="588" style="stroke:#cb0;stroke-width:1;"/>
   <line x1="425" y1="418" x2="435" y2="418" style="stroke:#cb0;stroke-width:1;"/>
   <line x1="227" y1="588" x2="425" y2="418" style="stroke:#cb0;stroke-width:1;"/>
   <line x1="224.5" y1="588" x2="220.96446609407" y2="591.53553390593" style="stroke:#cb0;stroke-width:2;"/>
   <line x1="224.5" y1="588" x2="220.96446609407" y2="584.46446609407" style="stroke:#cb0;stroke-width:2;"/>
   <line x1="430" y1="418" x2="426.46446609407" y2="421.53553390593" style="stroke:#cb0;stroke-width:2;"/>
   <line x1="430" y1="418" x2="426.46446609407" y2="414.46446609407" style="stroke:#cb0;stroke-width:2;"/>
   <line x1="435" y1="538" x2="425" y2="538" style="stroke:#0bf;stroke-width:1;"/>
   <line x1="252" y1="164" x2="242" y2="164" style="stroke:#0bf;stroke-width:1;"/>
   <line x1="425" y1="538" x2="252" y2="164" style="stroke:#0bf;stroke-width:1;"/>
   <line x1="427.5" y1="538" x2="431.03553390593" y2="541.53553390593" style="stroke:#0bf;stroke-width:2;"/>
   <line x1="427.5" y1="538" x2="431.03553390593" y2="534.46446609407" style="stroke:#0bf;stroke-width:2;"/>
   <line x1="247" y1="164" x2="250.53553390593" y2="167.53553390593" style="stroke:#0bf;stroke-width:2;"/>
   <line x1="247" y1="164" x2="250.53553390593" y2="160.46446609407" style="stroke:#0bf;stroke-width:2;"/>
   <rect width="105" height="20" x="733" y="370" style="fill:#007;stroke:black;"/>
   <text width="105" height="20" x="738" y="384" style="fill:#fff;" font-family="Arial" font-size="16px"> abbm</text>
   <rect width="105" height="20" x="733" y="390" style="fill:#aea;stroke:black;"/>
   <text width="105" height="20" x="738" y="404" style="fill:black;" font-family="Arial" font-size="16px">id</text>
   <rect width="105" height="20" x="733" y="410" style="fill:none;stroke:black;"/>
   <text width="105" height="20" x="738" y="424" style="fill:black;" font-family="Arial" font-size="16px">bm_id</text>
   <rect width="105" height="20" x="733" y="430" style="fill:none;stroke:black;"/>
   <text width="105" height="20" x="738" y="444" style="fill:black;" font-family="Arial" font-size="16px">income_date</text>
   <rect width="105" height="20" x="733" y="450" style="fill:none;stroke:black;"/>
   <text width="105" height="20" x="738" y="464" style="fill:black;" font-family="Arial" font-size="16px">income_value</text>
   <rect width="105" height="20" x="733" y="470" style="fill:none;stroke:black;"/>
   <text width="105" height="20" x="738" y="484" style="fill:black;" font-family="Arial" font-size="16px">uldegdel</text>
   <rect width="105" height="20" x="733" y="490" style="fill:none;stroke:black;"/>
   <text width="105" height="20" x="738" y="504" style="fill:black;" font-family="Arial" font-size="16px">finished_date</text>
   <rect width="105" height="20" x="733" y="510" style="fill:none;stroke:black;"/>
   <text width="105" height="20" x="738" y="524" style="fill:black;" font-family="Arial" font-size="16px">user_id</text>
   <rect width="105" height="20" x="733" y="530" style="fill:none;stroke:black;"/>
   <text width="105" height="20" x="738" y="544" style="fill:black;" font-family="Arial" font-size="16px">is_actived</text>
   <rect width="105" height="20" x="733" y="550" style="fill:none;stroke:black;"/>
   <text width="105" height="20" x="738" y="564" style="fill:black;" font-family="Arial" font-size="16px">edited_date</text>
   <rect width="99" height="20" x="713" y="116" style="fill:#007;stroke:black;"/>
   <text width="99" height="20" x="718" y="130" style="fill:#fff;" font-family="Arial" font-size="16px"> bm</text>
   <rect width="99" height="20" x="713" y="136" style="fill:#aea;stroke:black;"/>
   <text width="99" height="20" x="718" y="150" style="fill:black;" font-family="Arial" font-size="16px">id</text>
   <rect width="99" height="20" x="713" y="156" style="fill:none;stroke:black;"/>
   <text width="99" height="20" x="718" y="170" style="fill:black;" font-family="Arial" font-size="16px">cod</text>
   <rect width="99" height="20" x="713" y="176" style="fill:none;stroke:black;"/>
   <text width="99" height="20" x="718" y="190" style="fill:black;" font-family="Arial" font-size="16px">name</text>
   <rect width="99" height="20" x="713" y="196" style="fill:none;stroke:black;"/>
   <text width="99" height="20" x="718" y="210" style="fill:black;" font-family="Arial" font-size="16px">price</text>
   <rect width="99" height="20" x="713" y="216" style="fill:none;stroke:black;"/>
   <text width="99" height="20" x="718" y="230" style="fill:black;" font-family="Arial" font-size="16px">tailbar</text>
   <rect width="99" height="20" x="713" y="236" style="fill:none;stroke:black;"/>
   <text width="99" height="20" x="718" y="250" style="fill:black;" font-family="Arial" font-size="16px">is_active</text>
   <rect width="99" height="20" x="713" y="256" style="fill:none;stroke:black;"/>
   <text width="99" height="20" x="718" y="270" style="fill:black;" font-family="Arial" font-size="16px">is_deleted</text>
   <rect width="99" height="20" x="713" y="276" style="fill:none;stroke:black;"/>
   <text width="99" height="20" x="718" y="290" style="fill:black;" font-family="Arial" font-size="16px">created_date</text>
   <rect width="99" height="20" x="713" y="296" style="fill:none;stroke:black;"/>
   <text width="99" height="20" x="718" y="310" style="fill:black;" font-family="Arial" font-size="16px">edited_date</text>
   <rect width="99" height="20" x="713" y="316" style="fill:none;stroke:black;"/>
   <text width="99" height="20" x="718" y="330" style="fill:black;" font-family="Arial" font-size="16px">user_id</text>
   <rect width="99" height="20" x="143" y="317" style="fill:#007;stroke:black;"/>
   <text width="99" height="20" x="148" y="331" style="fill:#fff;" font-family="Arial" font-size="16px"> orders</text>
   <rect width="99" height="20" x="143" y="337" style="fill:#aea;stroke:black;"/>
   <text width="99" height="20" x="148" y="351" style="fill:black;" font-family="Arial" font-size="16px">id</text>
   <rect width="99" height="20" x="143" y="357" style="fill:none;stroke:black;"/>
   <text width="99" height="20" x="148" y="371" style="fill:black;" font-family="Arial" font-size="16px">order_bm_id</text>
   <rect width="99" height="20" x="143" y="377" style="fill:none;stroke:black;"/>
   <text width="99" height="20" x="148" y="391" style="fill:black;" font-family="Arial" font-size="16px">bm_id</text>
   <rect width="99" height="20" x="143" y="397" style="fill:none;stroke:black;"/>
   <text width="99" height="20" x="148" y="411" style="fill:black;" font-family="Arial" font-size="16px">too</text>
   <rect width="99" height="20" x="143" y="417" style="fill:none;stroke:black;"/>
   <text width="99" height="20" x="148" y="431" style="fill:black;" font-family="Arial" font-size="16px">unit_price</text>
   <rect width="99" height="20" x="143" y="437" style="fill:none;stroke:black;"/>
   <text width="99" height="20" x="148" y="451" style="fill:black;" font-family="Arial" font-size="16px">price_sum</text>
   <rect width="99" height="20" x="143" y="457" style="fill:none;stroke:black;"/>
   <text width="99" height="20" x="148" y="471" style="fill:black;" font-family="Arial" font-size="16px">created_date</text>
   <rect width="100" height="20" x="117" y="518" style="fill:#007;stroke:black;"/>
   <text width="100" height="20" x="122" y="532" style="fill:#fff;" font-family="Arial" font-size="16px"> order_bm</text>
   <rect width="100" height="20" x="117" y="538" style="fill:#aea;stroke:black;"/>
   <text width="100" height="20" x="122" y="552" style="fill:black;" font-family="Arial" font-size="16px">id</text>
   <rect width="100" height="20" x="117" y="558" style="fill:none;stroke:black;"/>
   <text width="100" height="20" x="122" y="572" style="fill:black;" font-family="Arial" font-size="16px">created_date</text>
   <rect width="100" height="20" x="117" y="578" style="fill:none;stroke:black;"/>
   <text width="100" height="20" x="122" y="592" style="fill:black;" font-family="Arial" font-size="16px">user_id</text>
   <rect width="100" height="20" x="117" y="598" style="fill:none;stroke:black;"/>
   <text width="100" height="20" x="122" y="612" style="fill:black;" font-family="Arial" font-size="16px">is_complated</text>
   <rect width="99" height="20" x="435" y="388" style="fill:#007;stroke:black;"/>
   <text width="99" height="20" x="440" y="402" style="fill:#fff;" font-family="Arial" font-size="16px"> users</text>
   <rect width="99" height="20" x="435" y="408" style="fill:#aea;stroke:black;"/>
   <text width="99" height="20" x="440" y="422" style="fill:black;" font-family="Arial" font-size="16px">id</text>
   <rect width="99" height="20" x="435" y="428" style="fill:none;stroke:black;"/>
   <text width="99" height="20" x="440" y="442" style="fill:black;" font-family="Arial" font-size="16px">fn</text>
   <rect width="99" height="20" x="435" y="448" style="fill:none;stroke:black;"/>
   <text width="99" height="20" x="440" y="462" style="fill:black;" font-family="Arial" font-size="16px">ln</text>
   <rect width="99" height="20" x="435" y="468" style="fill:none;stroke:black;"/>
   <text width="99" height="20" x="440" y="482" style="fill:black;" font-family="Arial" font-size="16px">email</text>
   <rect width="99" height="20" x="435" y="488" style="fill:none;stroke:black;"/>
   <text width="99" height="20" x="440" y="502" style="fill:black;" font-family="Arial" font-size="16px">pwd</text>
   <rect width="99" height="20" x="435" y="508" style="fill:none;stroke:black;"/>
   <text width="99" height="20" x="440" y="522" style="fill:black;" font-family="Arial" font-size="16px">phone_num</text>
   <rect width="99" height="20" x="435" y="528" style="fill:none;stroke:black;"/>
   <text width="99" height="20" x="440" y="542" style="fill:black;" font-family="Arial" font-size="16px">type_id</text>
   <rect width="99" height="20" x="435" y="548" style="fill:none;stroke:black;"/>
   <text width="99" height="20" x="440" y="562" style="fill:black;" font-family="Arial" font-size="16px">is_active</text>
   <rect width="99" height="20" x="435" y="568" style="fill:none;stroke:black;"/>
   <text width="99" height="20" x="440" y="582" style="fill:black;" font-family="Arial" font-size="16px">created_date</text>
   <rect width="99" height="20" x="143" y="134" style="fill:#007;stroke:black;"/>
   <text width="99" height="20" x="148" y="148" style="fill:#fff;" font-family="Arial" font-size="16px"> user_type</text>
   <rect width="99" height="20" x="143" y="154" style="fill:#aea;stroke:black;"/>
   <text width="99" height="20" x="148" y="168" style="fill:black;" font-family="Arial" font-size="16px">id</text>
   <rect width="99" height="20" x="143" y="174" style="fill:none;stroke:black;"/>
   <text width="99" height="20" x="148" y="188" style="fill:black;" font-family="Arial" font-size="16px">name</text>
   <rect width="99" height="20" x="143" y="194" style="fill:none;stroke:black;"/>
   <text width="99" height="20" x="148" y="208" style="fill:black;" font-family="Arial" font-size="16px">is_active</text>
   <rect width="99" height="20" x="143" y="214" style="fill:none;stroke:black;"/>
   <text width="99" height="20" x="148" y="228" style="fill:black;" font-family="Arial" font-size="16px">created_date</text>
</svg>
